{"glyphs":{"东":{"ha":1389,"x_min":53,"x_max":1322,"o":"m 1225 451 l 785 451 l 785 85 q 746 -48 785 -10 q 618 -86 707 -86 q 465 -78 543 -86 l 446 31 q 594 19 524 19 q 653 38 636 19 q 671 106 671 57 l 671 451 l 192 451 l 192 557 q 382 879 272 676 l 94 879 l 94 986 l 438 986 q 531 1185 499 1107 l 639 1142 q 567 986 613 1078 l 1282 986 l 1282 879 l 511 879 q 325 556 399 668 l 671 556 l 671 810 l 785 810 l 785 556 l 1225 556 l 1225 451 m 472 303 q 312 113 407 214 q 131 -62 217 11 l 53 33 q 225 194 135 99 q 381 379 315 289 l 472 303 m 968 376 q 1146 214 1038 317 q 1322 39 1254 111 l 1236 -51 q 1065 129 1169 25 q 890 294 961 233 l 968 376 z "},"云":{"ha":1389,"x_min":85,"x_max":1303,"o":"m 196 1085 l 1193 1085 l 1193 974 l 196 974 l 196 1085 m 683 594 q 515 318 614 465 q 331 81 415 171 l 399 86 q 649 110 447 90 q 1024 151 851 129 q 850 415 932 297 l 946 474 q 1113 231 1013 382 q 1278 -29 1213 79 l 1176 -99 l 1089 46 l 353 -19 l 161 -36 l 126 81 q 190 108 169 96 q 232 144 211 121 q 403 363 314 239 q 551 594 492 486 l 85 594 l 85 707 l 1303 707 l 1303 594 l 683 594 z "},"京":{"ha":1389,"x_min":56,"x_max":1335,"o":"m 1307 1011 l 1307 908 l 82 908 l 82 1011 l 649 1011 q 582 1144 618 1081 l 692 1181 q 774 1011 743 1083 l 1307 1011 m 1146 368 l 771 368 l 771 56 q 731 -58 771 -25 q 592 -90 692 -90 q 454 -81 535 -90 l 432 32 q 576 19 506 19 q 640 35 625 19 q 654 103 654 51 l 654 368 l 240 368 l 240 776 l 1146 776 l 1146 368 m 1032 674 l 354 674 l 354 472 l 1032 472 l 1032 674 m 472 247 q 316 88 413 175 q 128 -67 219 1 l 56 31 q 235 169 140 88 q 389 322 329 250 l 472 247 m 974 321 q 1335 25 1078 244 l 1258 -65 q 1090 82 1200 -10 q 906 232 981 174 l 974 321 z "},"区":{"ha":1389,"x_min":168,"x_max":1313,"o":"m 278 996 l 278 60 l 1313 60 l 1313 -50 l 168 -50 l 168 1101 l 1286 1101 l 1286 996 l 278 996 m 351 232 q 722 535 542 354 q 390 839 535 714 l 464 915 q 796 610 599 799 q 1057 933 944 769 l 1149 868 q 872 536 1014 686 q 1188 228 1024 392 l 1104 143 q 799 460 990 274 q 422 136 613 268 l 351 232 z "},"南":{"ha":1389,"x_min":67,"x_max":1307,"o":"m 1307 919 l 744 919 l 744 792 l 1219 792 l 1219 81 q 1206 -21 1219 15 q 1162 -72 1193 -57 q 1074 -87 1131 -87 q 904 -81 975 -87 l 885 24 q 1033 14 972 14 q 1097 33 1082 14 q 1111 106 1111 51 l 1111 692 l 261 692 l 261 -86 l 153 -86 l 153 792 l 632 792 l 632 919 l 67 919 l 67 1024 l 632 1024 l 632 1171 l 744 1171 l 744 1024 l 1307 1024 l 1307 919 m 1051 186 l 739 186 l 739 -57 l 633 -57 l 633 186 l 329 186 l 329 274 l 633 274 l 633 397 l 358 397 l 358 485 l 524 485 q 425 608 451 582 l 501 667 q 572 585 531 635 q 631 510 613 535 l 597 485 l 726 485 q 861 668 810 588 l 947 617 q 849 485 906 556 l 1021 485 l 1021 397 l 739 397 l 739 274 l 1051 274 l 1051 186 z "},"县":{"ha":1389,"x_min":69,"x_max":1319,"o":"m 621 290 q 385 29 522 169 l 990 79 l 947 126 q 875 206 924 153 l 960 272 l 1050 172 l 1243 -39 l 1153 -115 l 1072 -15 q 308 -69 597 -42 q 183 -83 206 -81 l 153 26 q 209 37 189 31 q 244 56 229 43 q 355 159 293 94 q 474 290 417 224 l 69 290 l 69 389 l 253 389 l 253 1107 l 1132 1107 l 1132 389 l 1319 389 l 1319 290 l 621 290 m 1025 864 l 1025 1006 l 363 1006 l 363 864 l 1025 864 m 363 629 l 1025 629 l 1025 771 l 363 771 l 363 629 m 1025 533 l 363 533 l 363 389 l 1025 389 l 1025 533 z "},"启":{"ha":1389,"x_min":31,"x_max":1244,"o":"m 1244 1025 l 1244 615 l 340 615 q 290 258 336 404 q 129 -60 244 113 l 31 10 q 151 216 110 121 q 209 419 192 311 q 226 686 226 528 l 226 1025 l 694 1025 q 635 1151 656 1114 l 749 1182 q 819 1025 775 1132 l 1244 1025 m 340 718 l 1129 718 l 1129 922 l 340 922 l 340 718 m 510 -107 l 396 -107 l 396 444 l 1217 444 l 1217 -107 l 1101 -107 l 1101 -29 l 510 -29 l 510 -107 m 1101 71 l 1101 342 l 510 342 l 510 71 l 1101 71 z "},"城":{"ha":1389,"x_min":40,"x_max":1336,"o":"m 1171 958 q 1029 1114 1088 1056 l 1097 1175 q 1243 1022 1139 1138 l 1171 958 m 1336 238 q 1315 89 1329 160 q 1265 -50 1297 -12 q 1188 -87 1232 -87 q 1109 -56 1146 -87 q 1036 54 1072 -24 q 1001 142 1011 113 q 775 -93 908 18 l 700 -19 q 965 265 861 108 q 875 846 903 506 l 586 846 l 586 651 l 829 651 q 824 416 831 571 q 813 219 818 261 q 772 122 804 150 q 661 94 740 94 q 590 100 638 94 l 569 201 q 657 193 613 193 q 702 210 689 193 q 719 271 715 228 q 728 409 724 321 q 732 554 732 497 l 586 554 q 569 294 586 400 q 513 95 553 188 q 396 -110 472 3 l 300 -57 q 410 135 374 49 q 461 324 447 221 q 475 592 475 426 l 475 944 l 867 944 q 851 1169 851 1146 l 964 1169 q 967 1090 964 1150 q 976 944 971 1029 l 1304 944 l 1304 846 l 982 846 q 1039 396 1001 583 q 1164 736 1111 543 l 1258 707 q 1075 253 1179 429 q 1121 122 1096 182 q 1152 58 1139 78 q 1181 39 1165 39 q 1208 60 1197 39 q 1228 142 1219 82 q 1242 265 1236 204 l 1336 238 m 403 213 q 241 151 347 190 q 58 88 135 113 l 40 200 l 151 235 q 192 249 164 240 l 192 707 l 61 707 l 61 813 l 192 813 l 192 1150 l 296 1150 l 296 813 l 413 813 l 413 707 l 296 707 l 296 285 q 403 322 361 306 l 403 213 z "},"如":{"ha":1389,"x_min":53,"x_max":1244,"o":"m 650 807 q 594 465 628 596 q 499 232 561 333 q 699 64 563 181 l 629 -36 q 431 139 511 71 q 140 -115 336 28 l 53 -33 q 228 94 157 38 q 347 208 299 151 q 136 371 217 314 q 235 800 200 596 l 79 800 l 79 911 l 251 911 q 279 1172 269 1050 l 392 1160 q 364 911 381 1049 l 650 911 l 650 807 m 760 -76 l 760 1001 l 1244 1001 l 1244 -68 l 1139 -68 l 1139 42 l 867 42 l 867 -76 l 760 -76 m 867 892 l 867 156 l 1139 156 l 1139 892 l 867 892 m 261 415 q 386 321 289 396 l 415 299 q 495 501 468 388 q 542 800 522 615 l 347 800 q 261 415 308 571 z "},"安":{"ha":1389,"x_min":83,"x_max":1306,"o":"m 257 906 l 257 742 l 146 742 l 146 1013 l 650 1013 q 594 1149 618 1094 l 711 1171 q 776 1013 721 1151 l 1250 1013 l 1250 742 l 1140 742 l 1140 906 l 257 906 m 1068 521 q 974 331 1024 411 q 860 188 925 250 q 1279 -1 1097 83 l 1217 -106 q 758 107 1014 -6 q 502 -11 654 40 q 126 -108 350 -62 l 93 6 q 412 75 281 38 q 635 161 543 113 q 258 315 397 261 q 388 521 324 408 l 83 521 l 83 628 l 444 628 q 547 844 508 750 l 663 807 q 581 628 619 706 l 1306 628 l 1306 521 l 1068 521 m 428 364 q 747 235 550 318 q 856 358 811 288 q 938 521 901 428 l 524 521 q 428 364 476 435 z "},"宿":{"ha":1389,"x_min":53,"x_max":1261,"o":"m 244 925 l 244 754 l 133 754 l 133 1025 l 663 1025 q 594 1158 624 1104 l 713 1190 q 786 1025 754 1107 l 1256 1025 l 1256 836 l 1144 836 l 1144 925 l 244 925 m 457 831 q 350 606 413 714 l 350 -110 l 242 -110 l 242 436 q 93 256 169 333 l 53 381 q 219 600 138 467 q 353 867 301 733 l 457 831 m 1261 693 l 926 693 q 888 554 904 604 l 1203 554 l 1203 -100 l 1094 -100 l 1094 -31 l 651 -31 l 651 -101 l 542 -101 l 542 554 l 768 554 q 807 693 789 621 l 494 693 l 494 790 l 1261 790 l 1261 693 m 651 310 l 1094 310 l 1094 461 l 651 461 l 651 310 m 651 217 l 651 61 l 1094 61 l 1094 217 l 651 217 z "},"崇":{"ha":1389,"x_min":69,"x_max":1319,"o":"m 1092 1110 l 1206 1110 l 1206 872 l 186 872 l 186 1111 l 300 1111 l 300 965 l 638 965 l 638 1151 l 753 1151 l 753 965 l 1092 965 l 1092 1110 m 242 647 l 242 485 l 128 485 l 128 744 l 656 744 l 607 831 l 725 851 l 786 744 l 1256 744 l 1256 485 l 1143 485 l 1143 647 l 242 647 m 1086 531 l 1086 435 l 299 435 l 299 531 l 1086 531 m 1294 225 l 767 225 l 767 36 q 749 -52 767 -21 q 692 -97 732 -83 q 581 -110 651 -110 q 456 -103 525 -110 l 436 6 q 574 -7 518 -7 q 637 13 619 -7 q 654 81 654 33 l 654 225 l 93 225 l 93 324 l 1294 324 l 1294 225 m 488 113 q 119 -104 356 17 l 69 0 q 263 97 168 43 q 424 201 358 150 l 488 113 m 925 194 q 1078 122 975 172 q 1236 47 1182 72 l 1319 7 l 1275 -99 q 1079 6 1200 -57 q 876 108 958 68 l 925 194 z "},"川":{"ha":1389,"x_min":53,"x_max":1211,"o":"m 1096 1146 l 1211 1146 l 1211 -90 l 1096 -90 l 1096 1146 m 53 -43 q 190 169 149 79 q 247 376 232 258 q 261 721 261 494 l 261 1144 l 376 1144 l 376 722 q 361 348 376 478 q 303 120 346 218 q 163 -107 260 22 l 53 -43 m 676 1099 l 792 1099 l 792 -26 l 676 -26 l 676 1099 z "},"州":{"ha":1389,"x_min":61,"x_max":1221,"o":"m 96 -29 q 253 159 200 69 q 326 371 306 249 q 347 697 347 493 l 347 1156 l 456 1156 l 456 692 q 433 336 456 471 q 353 99 411 201 q 181 -114 294 -4 l 96 -29 m 1113 1156 l 1221 1156 l 1221 -89 l 1113 -89 l 1113 1156 m 722 1121 l 832 1121 l 832 -62 l 722 -62 l 722 1121 m 61 419 q 128 618 96 501 q 182 842 161 735 l 281 817 q 223 586 257 711 q 157 383 189 461 l 61 419 m 578 842 q 637 646 604 761 q 692 440 669 531 l 592 407 q 540 610 571 496 q 481 810 508 725 l 578 842 m 960 838 q 1082 438 1028 632 l 979 406 q 864 806 935 583 l 960 838 z "},"市":{"ha":1389,"x_min":81,"x_max":1307,"o":"m 1307 896 l 750 896 l 750 721 l 1192 721 l 1192 238 q 1177 131 1192 168 q 1129 78 1163 93 q 1035 61 1096 63 q 899 67 964 61 l 874 186 q 1008 175 949 175 q 1053 183 1039 175 q 1073 210 1068 190 q 1078 275 1078 231 l 1078 615 l 750 615 l 750 -104 l 638 -104 l 638 615 l 310 615 l 310 61 l 197 61 l 197 721 l 638 721 l 638 896 l 81 896 l 81 1001 l 640 1001 q 575 1153 606 1092 l 685 1178 q 756 1001 721 1106 l 1307 1001 l 1307 896 z "},"常":{"ha":1389,"x_min":131,"x_max":1260,"o":"m 1260 946 l 1260 668 l 1156 668 l 1156 847 l 236 847 l 236 669 l 131 669 l 131 946 l 407 946 q 236 1088 325 1018 l 308 1164 q 497 1011 426 1069 l 439 946 l 642 946 l 642 1172 l 750 1172 l 750 946 l 943 946 l 885 1008 q 1081 1160 1018 1103 l 1147 1085 q 967 946 1022 982 l 1260 946 m 750 460 l 750 357 l 1196 357 l 1196 111 q 1179 23 1196 53 q 1124 -19 1163 -7 q 1014 -31 1086 -31 q 897 -24 946 -31 l 879 78 q 1000 67 960 67 q 1071 83 1053 67 q 1089 147 1089 99 l 1089 260 l 750 260 l 750 -107 l 642 -108 l 642 260 l 304 260 l 304 -29 l 199 -29 l 199 357 l 642 357 l 642 460 l 310 460 l 310 747 l 1081 747 l 1081 460 l 750 460 m 982 658 l 410 658 l 410 546 l 982 546 l 982 658 z "},"徐":{"ha":1389,"x_min":40,"x_max":1350,"o":"m 475 1089 q 316 881 413 994 q 128 688 219 768 l 67 783 q 240 960 147 853 q 386 1151 332 1068 l 475 1089 m 1293 378 l 929 378 l 929 65 q 897 -55 929 -18 q 794 -92 865 -92 q 653 -81 728 -92 l 631 25 q 751 11 711 11 q 805 35 790 11 q 819 107 819 58 l 819 378 l 450 378 l 450 483 l 819 483 l 819 646 l 626 646 l 626 747 q 496 635 579 703 l 429 728 q 653 927 567 829 q 810 1150 739 1025 l 919 1150 q 1100 929 986 1040 q 1350 729 1214 818 l 1286 635 q 1049 826 1157 721 q 869 1043 942 932 q 758 887 814 956 q 629 750 703 818 l 1124 750 l 1124 646 l 929 646 l 929 483 l 1293 483 l 1293 378 m 438 760 q 333 571 400 678 l 333 -101 l 228 -101 l 228 421 q 96 271 161 335 l 40 369 q 212 569 129 451 q 346 804 294 688 l 438 760 m 1111 332 q 1349 24 1190 236 l 1258 -39 q 1148 117 1219 19 q 1031 271 1076 214 l 1111 332 m 690 281 q 580 107 646 199 q 453 -51 514 15 l 376 19 q 499 166 438 82 q 603 328 561 250 l 690 281 z "},"扬":{"ha":1389,"x_min":51,"x_max":1274,"o":"m 500 514 l 353 460 l 353 76 q 338 -22 353 11 q 285 -66 322 -54 q 176 -78 249 -78 q 96 -74 138 -78 l 75 33 q 169 25 124 25 q 232 40 217 25 q 247 101 247 56 l 247 424 q 72 367 139 386 l 51 475 q 247 535 119 493 l 247 815 l 72 815 l 72 919 l 247 919 l 247 1174 l 353 1174 l 353 919 l 508 919 l 508 815 l 353 815 l 353 569 q 386 581 375 578 q 493 619 472 611 l 500 514 m 743 699 l 1274 699 q 1235 119 1265 393 q 1208 9 1226 47 q 1151 -45 1190 -29 q 1038 -61 1113 -61 q 897 -54 957 -61 l 878 49 q 1013 38 949 38 q 1078 45 1056 38 q 1111 75 1100 53 q 1129 142 1122 97 q 1165 594 1158 339 l 1031 594 q 904 199 993 360 q 647 -104 815 38 l 558 -33 q 806 238 722 97 q 932 594 889 378 l 789 594 q 677 313 751 436 q 483 86 603 189 l 408 164 q 583 355 514 249 q 688 594 651 461 l 538 594 l 538 682 l 993 981 l 579 981 l 579 1088 l 1188 1088 l 1188 981 l 743 699 z "},"无":{"ha":1389,"x_min":90,"x_max":1299,"o":"m 1299 688 l 1299 583 l 672 583 q 517 200 633 361 q 164 -104 401 39 l 97 -1 q 416 260 310 122 q 560 583 522 397 l 90 583 l 90 688 l 576 688 q 588 821 582 735 q 589 870 589 842 q 590 928 589 899 l 592 978 l 169 978 l 169 1082 l 1218 1082 l 1218 978 l 700 978 l 699 922 q 697 864 697 893 q 696 814 697 835 q 686 688 694 768 l 1299 688 m 1185 147 q 1189 307 1189 243 l 1299 286 l 1290 100 q 1271 8 1288 40 q 1219 -38 1254 -24 q 1117 -57 1183 -53 q 1004 -61 1057 -61 q 892 -57 953 -61 q 772 -15 808 -51 q 736 118 736 22 l 736 508 l 847 508 l 847 149 q 866 73 847 94 q 931 49 885 51 q 1010 46 989 46 q 1089 49 1031 46 q 1164 72 1144 53 q 1185 147 1183 90 z "},"江":{"ha":1389,"x_min":64,"x_max":1324,"o":"m 394 863 q 146 1051 218 1003 l 211 1139 q 463 957 374 1026 l 394 863 m 949 931 l 949 71 l 1324 71 l 1324 -39 l 425 -39 l 425 71 l 831 71 l 831 931 l 526 931 l 526 1044 l 1275 1044 l 1275 931 l 949 931 m 342 524 q 208 632 293 567 q 64 739 124 697 l 128 832 q 274 728 189 792 q 408 622 358 665 l 342 524 m 449 371 l 413 300 q 211 -94 217 -82 l 106 -37 q 226 191 128 0 q 343 428 324 382 l 449 371 z "},"泰":{"ha":1389,"x_min":40,"x_max":1331,"o":"m 947 553 q 1107 415 1018 474 q 1331 303 1196 357 l 1281 204 q 1013 358 1115 281 q 864 240 935 288 l 796 319 q 935 424 867 363 q 818 553 867 490 l 540 553 q 435 433 492 486 q 579 314 526 363 l 507 238 q 357 365 433 308 q 92 196 251 282 l 40 290 q 253 419 165 356 q 403 553 342 483 l 90 553 l 90 646 l 472 646 q 531 758 506 699 l 196 758 l 196 847 l 563 847 q 593 958 575 888 l 139 958 l 139 1049 l 611 1049 q 629 1171 625 1132 l 744 1169 q 724 1049 742 1136 l 1243 1049 l 1243 958 l 706 958 q 678 847 690 885 l 1185 847 l 1185 758 l 649 758 q 599 646 628 700 l 1290 646 l 1290 553 l 947 553 m 643 497 l 749 497 l 749 61 q 733 -32 749 0 q 681 -76 718 -64 q 572 -89 643 -89 q 464 -82 510 -89 l 444 25 q 571 15 514 14 q 627 40 611 17 q 643 115 643 63 l 643 143 q 139 -37 351 33 l 101 63 q 643 239 365 140 l 643 497 m 825 235 q 1047 140 919 196 q 1256 47 1174 85 l 1213 -46 l 785 150 l 825 235 z "},"海":{"ha":1389,"x_min":49,"x_max":1329,"o":"m 1329 415 l 1206 415 q 1192 203 1197 274 l 1301 203 l 1301 101 l 1183 101 l 1182 79 q 1135 -57 1174 -18 q 1003 -97 1096 -96 q 788 -86 886 -100 l 767 17 q 946 3 867 3 q 1042 23 1017 3 q 1074 101 1068 43 l 442 101 l 476 415 l 371 415 l 371 514 l 486 514 l 517 794 q 444 706 481 746 l 369 785 q 515 976 446 868 q 626 1185 583 1085 l 728 1151 q 681 1054 700 1089 l 1294 1054 l 1294 954 l 625 954 q 543 829 578 878 l 1222 829 q 1210 514 1218 674 l 1329 514 l 1329 415 m 176 1138 q 368 992 238 1093 l 424 949 l 364 858 q 111 1053 260 944 l 176 1138 m 111 826 l 179 774 q 361 635 317 669 l 299 543 q 173 646 249 586 q 49 740 97 706 l 111 826 m 618 728 l 593 514 l 1104 514 q 1114 728 1108 579 l 796 728 q 969 596 914 643 l 911 519 q 732 657 814 600 l 785 728 l 618 728 m 75 -56 q 166 192 97 1 q 249 431 235 382 l 350 393 q 264 149 315 297 q 179 -96 213 1 l 75 -56 m 582 415 l 557 203 l 886 203 q 797 274 846 236 q 706 342 747 313 l 763 415 l 582 415 m 1083 203 q 1099 415 1094 333 l 765 415 q 950 278 854 354 l 892 203 l 1083 203 z "},"淮":{"ha":1389,"x_min":50,"x_max":1319,"o":"m 1319 81 l 1319 -21 l 614 -21 l 614 -100 l 506 -100 l 506 661 q 428 543 467 596 l 367 661 q 492 876 426 731 q 594 1176 557 1021 l 708 1153 q 643 950 682 1053 l 894 950 q 828 1151 857 1071 l 939 1179 q 1014 950 974 1082 l 1299 950 l 1299 847 l 1008 847 l 1008 658 l 1271 658 l 1271 560 l 1008 560 l 1008 369 l 1271 369 l 1271 271 l 1008 271 l 1008 81 l 1319 81 m 374 858 q 140 1044 246 965 l 203 1135 l 325 1040 q 442 951 411 974 l 374 858 m 614 658 l 901 658 l 901 847 l 614 847 l 614 658 m 285 556 q 50 739 142 672 l 114 831 q 313 683 168 792 q 354 651 340 661 l 285 556 m 614 369 l 901 369 l 901 560 l 614 560 l 614 369 m 114 -44 q 197 198 146 44 q 275 440 247 351 l 385 404 q 293 131 353 314 q 226 -82 233 -51 l 114 -44 m 901 271 l 614 271 l 614 81 l 901 81 l 901 271 z "},"港":{"ha":1389,"x_min":38,"x_max":1328,"o":"m 1113 189 l 599 189 l 599 118 q 615 46 599 64 q 683 24 631 28 q 856 17 778 17 q 1042 24 938 17 q 1103 34 1083 26 q 1131 60 1122 42 q 1146 118 1140 78 q 1151 210 1151 163 l 1253 189 q 1247 118 1253 168 l 1244 86 q 1223 -8 1240 25 q 1169 -55 1206 -40 q 1067 -74 1133 -69 q 847 -79 968 -79 q 647 -74 736 -79 q 558 -56 590 -69 q 510 -7 525 -42 q 494 92 494 28 l 494 428 q 347 311 414 354 l 290 411 q 442 522 368 454 q 567 661 515 589 l 364 661 l 364 757 l 576 757 l 576 919 l 424 919 l 424 1017 l 576 1017 l 576 1167 l 681 1167 l 681 1017 l 946 1017 l 946 1167 l 1051 1167 l 1051 1017 l 1263 1017 l 1263 919 l 1051 919 l 1051 757 l 1304 757 l 1304 661 l 1039 661 q 1159 535 1089 590 q 1328 428 1229 479 l 1279 335 q 1113 443 1188 383 l 1113 189 m 318 868 q 206 964 274 908 q 92 1053 138 1019 l 154 1136 q 270 1049 203 1101 q 381 958 338 996 l 318 868 m 946 919 l 681 919 l 681 757 l 946 757 l 946 919 m 264 536 q 151 636 215 582 q 38 726 86 690 l 103 815 q 221 723 153 778 q 333 628 289 668 l 264 536 m 689 661 q 569 503 646 589 l 1044 503 q 924 661 978 571 l 689 661 m 599 283 l 1011 283 l 1011 408 l 599 408 l 599 283 m 71 -65 q 138 148 88 -19 q 199 364 188 315 l 303 328 q 241 111 293 283 q 175 -96 189 -61 l 71 -65 z "},"皋":{"ha":1389,"x_min":47,"x_max":1342,"o":"m 956 411 q 1126 281 1026 340 q 1342 182 1225 221 l 1294 74 q 1033 212 1154 124 q 819 411 911 300 l 561 411 q 358 220 472 306 q 94 65 244 135 l 47 169 q 238 269 144 207 q 411 411 331 332 l 96 411 l 96 506 l 497 506 q 575 613 533 547 l 221 613 l 221 1054 l 569 1054 q 617 1181 597 1122 l 736 1160 q 694 1054 710 1088 l 1164 1054 l 1164 613 l 697 613 q 632 506 664 553 l 1290 506 l 1290 411 l 956 411 m 1057 876 l 1057 964 l 328 964 l 328 876 l 1057 876 m 1057 792 l 328 792 l 328 703 l 1057 703 l 1057 792 m 639 332 l 747 332 l 747 182 l 1072 182 l 1072 86 l 747 86 l 747 -100 l 639 -100 l 639 86 l 317 86 l 317 182 l 639 182 l 639 332 z "},"盐":{"ha":1389,"x_min":67,"x_max":1339,"o":"m 81 586 q 367 621 121 589 l 367 833 l 115 833 l 115 936 l 367 936 l 367 1163 l 478 1163 l 478 936 l 715 936 l 715 833 l 478 833 l 478 635 l 719 667 l 728 560 q 94 475 646 553 l 81 586 m 936 475 l 829 475 l 829 1160 l 936 1160 l 936 932 q 1339 750 1135 846 l 1290 646 q 936 811 1178 703 l 936 475 m 214 410 l 1176 410 l 1176 44 l 1325 44 l 1325 -57 l 67 -57 l 67 44 l 214 44 l 214 410 m 506 313 l 319 313 l 319 44 l 506 44 l 506 313 m 604 44 l 788 44 l 788 313 l 604 313 l 604 44 m 888 44 l 1072 44 l 1072 313 l 888 313 l 888 44 z "},"苏":{"ha":1389,"x_min":71,"x_max":1328,"o":"m 521 817 l 407 817 l 407 925 l 71 925 l 71 1031 l 407 1031 l 407 1169 l 521 1169 l 521 1031 l 874 1031 l 874 1169 l 988 1169 l 988 1031 l 1319 1031 l 1319 925 l 988 925 l 988 813 l 874 813 l 874 925 l 521 925 l 521 817 m 1079 683 q 1064 403 1076 568 q 1033 108 1051 239 q 999 -3 1024 36 q 929 -59 975 -43 q 801 -75 883 -75 q 639 -65 733 -75 l 618 40 q 647 38 638 38 q 808 25 744 25 q 871 35 850 25 q 903 72 892 46 q 924 154 915 99 q 950 374 940 258 q 961 579 960 490 l 656 579 q 597 276 644 397 q 452 65 549 156 q 186 -125 356 -26 l 108 -33 q 356 133 267 53 q 488 317 444 213 q 542 579 531 422 l 174 579 l 174 683 l 547 683 q 550 788 551 751 l 663 788 l 660 683 l 1079 683 m 386 458 q 281 299 344 383 q 161 154 218 214 l 78 235 q 194 370 133 290 q 294 524 254 450 l 386 458 m 1172 494 q 1328 213 1288 293 l 1228 151 q 1074 439 1153 300 l 1172 494 z "},"迁":{"ha":1389,"x_min":61,"x_max":1333,"o":"m 333 801 q 234 924 299 847 q 118 1060 169 1001 l 201 1132 q 424 878 343 976 l 333 801 m 836 119 l 836 538 l 464 538 l 464 647 l 836 647 l 836 947 q 529 914 639 922 l 517 1018 q 876 1061 674 1032 q 1229 1121 1078 1090 l 1256 1013 q 951 963 1122 986 l 951 647 l 1311 647 l 1311 538 l 951 538 l 951 119 l 836 119 m 750 49 q 1042 39 921 39 q 1333 49 1164 39 l 1310 -61 q 1022 -71 1175 -71 q 733 -61 868 -71 q 537 -35 611 -53 q 410 22 463 -17 q 317 132 358 61 q 228 39 308 125 q 106 -86 108 -83 l 61 40 l 261 239 l 261 574 l 79 574 l 79 683 l 374 683 l 374 239 q 449 140 406 179 q 565 78 493 101 q 750 49 638 56 z "},"连":{"ha":1389,"x_min":61,"x_max":1331,"o":"m 840 90 l 840 301 l 454 301 l 454 406 l 840 406 l 840 558 l 514 558 l 514 660 q 649 918 578 763 l 460 918 l 460 1022 l 694 1022 q 753 1179 726 1100 l 864 1161 q 813 1022 847 1107 l 1289 1022 l 1289 918 l 769 918 q 643 661 707 772 l 840 661 l 840 835 l 950 835 l 950 661 l 1253 661 l 1253 558 l 950 558 l 950 406 l 1301 406 l 1301 301 l 950 301 l 950 90 l 840 90 m 339 808 q 236 942 303 861 q 128 1064 169 1024 l 211 1136 q 319 1013 253 1092 q 424 885 385 935 l 339 808 m 736 46 q 1018 36 868 36 q 1331 46 1149 36 l 1313 -64 q 1011 -71 1142 -71 q 721 -62 864 -71 q 492 -12 578 -53 q 317 125 406 29 l 133 -86 l 61 15 l 258 215 l 258 578 l 76 578 l 76 685 l 367 685 l 367 229 q 523 94 443 135 q 736 46 603 54 z "},"通":{"ha":1389,"x_min":61,"x_max":1329,"o":"m 313 815 q 211 947 275 865 q 110 1069 147 1029 l 190 1139 q 294 1017 231 1094 q 399 888 358 940 l 313 815 m 857 892 q 1039 1000 953 947 l 1069 1018 l 479 1018 l 479 1107 l 1228 1107 l 1228 1014 l 939 836 l 942 835 l 1249 835 l 1249 240 q 1220 140 1249 168 q 1128 111 1192 111 q 1011 119 1061 111 l 993 217 q 1104 206 1060 206 q 1137 222 1128 206 q 1146 281 1146 239 l 1146 335 l 919 335 l 919 124 l 818 124 l 818 335 l 596 335 l 596 121 l 494 121 l 494 835 l 775 835 l 626 932 l 682 1006 q 857 892 765 953 m 818 628 l 818 743 l 596 743 l 596 628 l 818 628 m 919 628 l 1146 628 l 1146 743 l 919 743 l 919 628 m 733 32 q 1001 25 844 25 q 1329 33 1165 25 l 1304 -74 q 1008 -81 1138 -81 q 718 -72 863 -81 q 549 -49 617 -67 q 426 6 481 -31 q 310 108 371 43 l 138 -81 l 61 7 l 256 197 l 256 583 l 72 583 l 72 686 l 360 686 l 360 206 q 460 106 411 142 q 573 54 510 71 q 733 32 636 38 m 596 538 l 596 424 l 818 424 l 818 538 l 596 538 m 919 538 l 919 424 l 1146 424 l 1146 538 l 919 538 z "},"锡":{"ha":1389,"x_min":36,"x_max":1285,"o":"m 236 901 q 107 685 183 794 l 36 765 q 233 1179 174 958 l 333 1164 q 281 1003 306 1068 l 511 1003 l 511 901 l 236 901 m 1285 528 q 1272 324 1282 447 q 1249 106 1261 200 q 1218 2 1239 38 q 1159 -47 1197 -33 q 1051 -61 1121 -61 q 960 -56 1021 -61 l 939 42 q 1040 32 994 32 q 1120 50 1099 32 q 1151 128 1142 68 q 1169 283 1160 183 q 1182 436 1179 382 l 1071 436 q 967 133 1039 257 q 753 -111 894 10 l 681 -37 q 881 176 817 74 q 981 436 946 278 l 882 436 q 749 178 826 285 q 529 -40 672 71 l 464 36 q 662 219 589 125 q 783 436 735 313 l 694 436 q 547 258 613 322 l 476 328 q 599 467 536 382 q 704 629 663 551 l 589 629 l 589 1111 l 1218 1111 l 1218 629 l 814 629 q 756 528 788 578 l 1285 528 m 1122 914 l 1122 1021 l 683 1021 l 683 914 l 1122 914 m 1122 825 l 683 825 l 683 721 l 1122 721 l 1122 825 m 494 113 q 292 -44 347 4 q 253 -82 264 -69 l 194 14 q 228 46 218 31 q 238 85 238 61 l 238 386 l 79 386 l 79 486 l 238 486 l 238 647 l 151 647 l 151 750 l 493 750 l 493 647 l 340 647 l 340 486 l 500 486 l 500 386 l 340 386 l 340 114 l 469 219 l 494 113 z "},"镇":{"ha":1389,"x_min":56,"x_max":1331,"o":"m 483 165 l 511 65 q 326 -46 381 -7 q 272 -90 286 -76 l 219 0 q 247 32 240 18 q 254 63 254 46 l 254 371 l 96 371 l 96 464 l 254 464 l 254 649 l 157 649 l 157 739 q 121 689 131 701 l 56 761 q 172 952 117 842 q 261 1167 228 1063 l 361 1143 q 303 1000 338 1075 l 521 1000 l 521 903 l 256 903 q 160 743 207 811 l 503 743 l 503 649 l 356 649 l 356 464 l 519 464 l 519 371 l 356 371 l 356 79 l 483 165 m 1214 871 l 1214 246 l 1331 246 l 1331 157 l 536 157 l 536 246 l 635 246 l 635 871 l 876 871 l 876 965 l 581 965 l 581 1050 l 876 1050 l 876 1165 l 979 1165 l 979 1050 l 1267 1050 l 1267 965 l 979 965 l 979 871 l 1214 871 m 1118 710 l 1118 790 l 732 790 l 732 710 l 1118 710 m 732 553 l 1118 553 l 1118 633 l 732 633 l 732 553 m 1118 396 l 1118 476 l 732 476 l 732 396 l 1118 396 m 1118 321 l 732 321 l 732 246 l 1118 246 l 1118 321 m 508 -22 q 775 133 638 35 l 824 57 q 551 -108 694 -37 l 508 -22 m 1058 132 q 1328 -18 1203 56 l 1282 -104 q 1018 56 1143 -14 l 1058 132 z "},"门":{"ha":1389,"x_min":140,"x_max":1246,"o":"m 247 1174 q 364 1069 296 1135 q 474 958 432 1004 l 392 871 q 280 989 349 919 q 169 1094 211 1058 l 247 1174 m 1246 108 q 1228 -15 1246 25 q 1165 -67 1210 -54 q 1025 -81 1119 -81 q 886 -75 981 -81 l 864 40 q 1019 32 942 32 q 1093 40 1069 32 q 1125 72 1117 49 q 1133 146 1133 94 l 1133 963 l 535 963 l 535 1071 l 1246 1071 l 1246 108 m 140 910 l 251 910 l 251 -86 l 140 -86 l 140 910 z "}}}
